<?xml version="1.0" standalone="no"?>
<!DOCTYPE svg PUBLIC "-//W3C//DTD SVG 20010904//EN"
 "http://www.w3.org/TR/2001/REC-SVG-20010904/DTD/svg10.dtd">
<svg version="1.0" xmlns="http://www.w3.org/2000/svg"
 width="26.000000pt" height="26.000000pt" viewBox="0 0 26.000000 26.000000"
 preserveAspectRatio="xMidYMid meet">
<metadata>
Created by potrace 1.16, written by Peter Selinger 2001-2019
</metadata>
<g transform="translate(0.000000,26.000000) scale(0.100000,-0.100000)"
fill="#000000" stroke="none">
<path d="M59 243 c-80 -49 -79 -179 1 -227 60 -35 150 -13 184 44 35 60 13
150 -44 184 -36 20 -107 20 -141 -1z m169 -58 c9 -8 -14 -34 -42 -47 -34 -17
-66 -69 -66 -108 0 -19 -6 -15 -35 23 -35 46 -43 71 -25 82 5 3 7 12 4 19 -3
8 5 21 18 30 18 14 36 16 83 10 33 -3 61 -7 63 -9z"/>
</g>
</svg>
