<?xml version="1.0" standalone="no"?>
<!DOCTYPE svg PUBLIC "-//W3C//DTD SVG 20010904//EN"
 "http://www.w3.org/TR/2001/REC-SVG-20010904/DTD/svg10.dtd">
<svg version="1.0" xmlns="http://www.w3.org/2000/svg"
 width="25.000000pt" height="25.000000pt" viewBox="0 0 25.000000 25.000000"
 preserveAspectRatio="xMidYMid meet">
<metadata>
Created by potrace 1.16, written by Peter Selinger 2001-2019
</metadata>
<g transform="translate(0.000000,25.000000) scale(0.100000,-0.100000)"
fill="#fff" stroke="none">
<path d="M35 215 c-52 -52 -52 -128 0 -180 32 -31 41 -35 90 -35 79 0 125 46
125 125 0 49 -4 58 -35 90 -32 31 -41 35 -90 35 -49 0 -58 -4 -90 -35z m196
-72 c5 -7 9 -21 9 -33 0 -24 -31 -27 -50 -5 -18 22 -28 19 -86 -25 -29 -22
-56 -40 -59 -40 -3 0 -5 25 -5 55 0 39 4 57 14 61 9 3 12 12 9 21 -5 13 -2 15
14 11 15 -4 23 0 26 14 4 15 11 18 26 13 14 -4 21 -2 21 7 0 11 43 -31 81 -79z"/>
</g>
</svg>
